<svg xmlns="http://www.w3.org/2000/svg" viewBox="0 0 32 32"><defs><style>.cls-1{fill:#a22535;}.cls-2{fill:#fff;}</style></defs><title>icone</title><g id="Layer_2" data-name="Layer 2"><g id="Layer_1-2" data-name="Layer 1"><path class="cls-1" d="M27.35,27.09l-2.84,2.83a7.48,7.48,0,0,1-9.94.37L1.13,19a3,3,0,0,1-.2-4.56L13.31,2.08a7.48,7.48,0,0,1,9.94-.37l3.08,2.6A15.2,15.2,0,0,1,27.35,27.09Z"/><path class="cls-2" d="M22.93,14.49a.82.82,0,0,0,1-.69.7.7,0,0,0-.49-.75l-3.74-1.19-.13,0a.83.83,0,0,0-.93.56.77.77,0,0,0,.49.9C20.41,13.71,21.67,14.11,22.93,14.49Z"/><path class="cls-2" d="M17.9,15a.83.83,0,0,0-.95.57.72.72,0,0,0,.52.89c1.21.46,2.43.9,3.64,1.35a.7.7,0,0,0,.45,0,.79.79,0,0,0,.65-.71.74.74,0,0,0-.55-.75L18.18,15A1.86,1.86,0,0,0,17.9,15Z"/><path class="cls-2" d="M16.65,18.1a1.23,1.23,0,0,0-.42-.1.81.81,0,0,0-.9.59.77.77,0,0,0,.58.9l3.49,1.29a.83.83,0,0,0,1.12-.39A.75.75,0,0,0,20,19.34Z"/><path class="cls-2" d="M28.92,10.14c-.13-.4-.47-.52-.86-.62L25.48,8.9l-9.4-2.32A.89.89,0,0,0,15,7c-.06.11-.11.22-.16.33l-3.63,7.56c-.33.68-.67,1.36-1,2.05A.75.75,0,0,0,10.6,18a.88.88,0,0,0,1.12-.44l.12-.24L16,8.66c.22-.45.21-.45.74-.32l9.83,2.46c.4.1.42.13.26.5q-1.89,4.38-4,8.68a27.23,27.23,0,0,1-2,3.59,3.58,3.58,0,0,1-1.86,1.6A2.19,2.19,0,0,1,16.17,24,3.52,3.52,0,0,1,16,22.32a.41.41,0,0,0-.31-.49c-1-.43-2-.88-3-1.32L7,18c-.37-.16-.39-.15-.49.23a4.11,4.11,0,0,0-.14,1c0,.11,0,.27,0,.42a3.45,3.45,0,0,0,2,3.18c2.09,1,4.21,2.06,6.31,3.09a6.67,6.67,0,0,0,3.34,1,4.76,4.76,0,0,0,3.31-1.28A9.8,9.8,0,0,0,23.17,23c1.39-2.59,2.6-5.25,3.8-7.91.63-1.39,1.23-2.79,1.84-4.18A1,1,0,0,0,28.92,10.14Z"/><path class="cls-2" d="M13,17.68c-.05.47.3.81.86.84a.76.76,0,0,0,.9-.68c0-.45-.32-.8-.86-.84A.76.76,0,0,0,13,17.68Z"/><path class="cls-2" d="M17.06,11a.78.78,0,0,0-.94.68.87.87,0,0,0,.85.88.89.89,0,0,0,.92-.74A.82.82,0,0,0,17.06,11Z"/><path class="cls-2" d="M14.57,14.78a.86.86,0,0,0,.87.86.83.83,0,0,0,.89-.73.89.89,0,0,0-.86-.84A.81.81,0,0,0,14.57,14.78Z"/></g></g></svg>