<svg xmlns="http://www.w3.org/2000/svg" viewBox="0 0 413.9 140.65"><defs><style>.cls-1{fill:#3c3c3b;}.cls-2{fill:#a32535;}.cls-3{fill:#fff;}.cls-4{font-size:17.75px;fill:#706f6f;font-family:Swiss721BT-Light, Swis721 Lt BT;letter-spacing:0.02em;}.cls-5{font-family:Swiss721BT-Medium, Swis721 Md BT;}.cls-6{letter-spacing:0.02em;}</style></defs><title>logo-completvect</title><g id="Layer_2" data-name="Layer 2"><g id="Layer_1-2" data-name="Layer 1"><path class="cls-1" d="M149,99.63V63.57a1.44,1.44,0,0,0-1.43-1.44h-4.3a1.43,1.43,0,0,1-1.44-1.43V53.44A1.43,1.43,0,0,1,143.22,52H149c0-.4-.06-.83-.07-1.3s0-1.14,0-2q0-8.79,4-12.53t13.48-3.75c.89,0,2,0,3.17.07l2.7.15a1.46,1.46,0,0,1,1.34,1.44l0,9.63c-.25,0-.55-.06-.9-.07s-.83,0-1.41,0c-2.26,0-3.78.47-4.58,1.41s-1.2,2.8-1.2,5.58h0A1.43,1.43,0,0,0,166.89,52h5.27a1.43,1.43,0,0,1,1.43,1.43V60.7a1.43,1.43,0,0,1-1.43,1.43h-5.27a1.44,1.44,0,0,0-1.43,1.44V99.63a1.45,1.45,0,0,1-1.44,1.44H150.38A1.44,1.44,0,0,1,149,99.63Z"/><path class="cls-1" d="M177.34,75.87q0-12.63,7.07-19.75T204,49q12.53,0,19.63,7.12t7.1,19.75q0,12.61-7.1,19.76T204,102.78q-12.57,0-19.6-7.12T177.34,75.87Zm16.88,0q0,6.88,2.54,10.59a8.94,8.94,0,0,0,14.49,0q2.56-3.72,2.57-10.56t-2.57-10.5a8.34,8.34,0,0,0-7.28-3.7,8.23,8.23,0,0,0-7.23,3.68C195.05,67.8,194.22,71.31,194.22,75.87Z"/><path class="cls-1" d="M239.39,99.63V52.24a1.43,1.43,0,0,1,1.43-1.43h13a1.43,1.43,0,0,1,1.43,1.43V54.7a1.44,1.44,0,0,0,2.57.88,15.47,15.47,0,0,1,4-3.55,18.46,18.46,0,0,1,8.43-2.41,1.45,1.45,0,0,1,1.56,1.43V64.24a1.44,1.44,0,0,1-1.56,1.43l-.55,0c-.69,0-1.35-.07-2-.07a15,15,0,0,0-6.27,1.13,9,9,0,0,0-3.95,3.49,12.18,12.18,0,0,0-1.32,4.51,81,81,0,0,0-.39,9.5V99.63a1.44,1.44,0,0,1-1.44,1.44h-13.5A1.44,1.44,0,0,1,239.39,99.63Z"/><path class="cls-1" d="M279.34,99.63V52.24a1.43,1.43,0,0,1,1.43-1.43h13a1.43,1.43,0,0,1,1.43,1.43v1.22a1.43,1.43,0,0,0,2.47,1,15.25,15.25,0,0,1,3.7-2.86,20.82,20.82,0,0,1,17.85,0,12.3,12.3,0,0,1,4.38,4.17,1.44,1.44,0,0,0,2.35.06,15.65,15.65,0,0,1,4.92-4.21,18.48,18.48,0,0,1,8.86-2q8.08,0,12.23,4.48t4.14,13.32V99.63a1.45,1.45,0,0,1-1.44,1.44H341.39A1.44,1.44,0,0,1,340,99.63V72.35q0-5.73-1.65-8T332.74,62a6.48,6.48,0,0,0-5.87,3c-1.26,2-1.9,5-1.9,9.16V99.63a1.44,1.44,0,0,1-1.43,1.44h-11.7a1.44,1.44,0,0,1-1.43-1.44V72.35q0-5.73-1.64-8c-1.1-1.53-2.95-2.29-5.57-2.29a6.51,6.51,0,0,0-5.88,3c-1.26,2-1.89,5-1.89,9.16V99.63a1.44,1.44,0,0,1-1.43,1.44H280.77A1.44,1.44,0,0,1,279.34,99.63Z"/><path class="cls-1" d="M366.36,85.72H380a1.43,1.43,0,0,1,1.39,1.14,6.19,6.19,0,0,0,2.31,3.85A10.41,10.41,0,0,0,390,92.37,9.63,9.63,0,0,0,395.49,91a4.14,4.14,0,0,0,2-3.6q0-2.93-7.76-4.9c-2.78-.71-5-1.35-6.71-1.9q-9.44-3.1-12.9-6.45a11.7,11.7,0,0,1-3.47-8.81,14.21,14.21,0,0,1,5.83-12q5.82-4.36,16-4.37,10.92,0,16.83,3.73a13.76,13.76,0,0,1,6.42,9.42,1.44,1.44,0,0,1-1.42,1.7H397.27a1.44,1.44,0,0,1-1.35-1,5.29,5.29,0,0,0-2.05-2.8,8.78,8.78,0,0,0-5-1.23A7.82,7.82,0,0,0,384.32,60a3.73,3.73,0,0,0-1.6,3.22q0,3,8,5.13c1.29.34,2.3.62,3,.83q7.49,2.18,10.4,3.26a18,18,0,0,1,4.21,2.06,12.77,12.77,0,0,1,4,4.62,13.85,13.85,0,0,1,1.29,6.15,14.92,14.92,0,0,1-6.38,12.81q-6.37,4.62-17.8,4.62-11.19,0-17.66-4.43a15.77,15.77,0,0,1-6.92-10.86A1.44,1.44,0,0,1,366.36,85.72Z"/><path class="cls-2" d="M32.3,12.27h73.59a28.35,28.35,0,0,1,28.35,28.35v16.9a70.87,70.87,0,0,1-70.87,70.87H46.47A28.35,28.35,0,0,1,18.12,100V26.44A14.17,14.17,0,0,1,32.3,12.27Z" transform="translate(-27.16 78.7) rotate(-47.34)"/><path class="cls-3" d="M92.4,63.68a3.33,3.33,0,0,0,4.15-3,3.13,3.13,0,0,0-2-3.29c-5-1.78-10-3.49-15-5.22a2.39,2.39,0,0,0-.52-.1,3.34,3.34,0,0,0-3.76,2.45,3.44,3.44,0,0,0,2,4C82.26,60.24,87.32,62,92.4,63.68Z"/><path class="cls-3" d="M72.14,65.7c-2.07-.14-3.41.81-3.85,2.51a3.22,3.22,0,0,0,2.12,3.94c4.87,2,9.77,3.95,14.65,5.92a2.77,2.77,0,0,0,1.82.1A3.41,3.41,0,0,0,89.48,75a3.25,3.25,0,0,0-2.19-3.29c-4.67-1.93-9.35-3.82-14-5.71A7.45,7.45,0,0,0,72.14,65.7Z"/><path class="cls-3" d="M67.07,79.54a4.74,4.74,0,0,0-1.66-.43,3.25,3.25,0,0,0-3.63,2.6,3.4,3.4,0,0,0,2.35,4q7,2.88,14,5.67a3.27,3.27,0,0,0,4.53-1.7A3.35,3.35,0,0,0,80.62,85Q73.85,82.26,67.07,79.54Z"/><path class="cls-3" d="M116.55,44.56c-.54-1.76-1.93-2.29-3.48-2.69-3.47-.92-6.94-1.83-10.4-2.77L64.81,28.91a3.44,3.44,0,0,0-4.51,2c-.25.47-.45,1-.67,1.45L45,65.52c-1.32,3-2.67,6-4,9a3.41,3.41,0,0,0,1.67,4.71c1.7.78,3.55,0,4.5-1.9.17-.36.34-.72.5-1.08q8.41-19.09,16.82-38.2c.86-1.95.83-2,3-1.38l39.61,10.81c1.64.45,1.69.56,1,2.2q-7.57,19.24-16,38.13a127.19,127.19,0,0,1-7.91,15.79c-1.87,3-3.94,5.85-7.5,7-4.35,1.46-9.76.37-11.59-5.32a17,17,0,0,1-.66-7.22,1.85,1.85,0,0,0-1.24-2.17c-4.06-1.88-8.08-3.85-12.11-5.79l-22.86-11c-1.5-.73-1.59-.67-2,1a19.49,19.49,0,0,0-.56,4.25,17.88,17.88,0,0,0-.12,1.82c.11,6.17,2.74,11,8.16,14,8.41,4.64,16.95,9.07,25.42,13.62,4.22,2.27,8.39,4.49,13.47,4.26s9.69-1.78,13.31-5.63a44.44,44.44,0,0,0,7.38-11.31C99,89.67,103.82,78,108.67,66.26c2.53-6.09,5-12.23,7.42-18.36A4.75,4.75,0,0,0,116.55,44.56Z"/><path class="cls-3" d="M52.28,77.73c-.16,2.06,1.22,3.52,3.47,3.69a3.18,3.18,0,0,0,3.66-3,3.44,3.44,0,0,0-3.49-3.69A3.15,3.15,0,0,0,52.28,77.73Z"/><path class="cls-3" d="M68.75,48.14a3.17,3.17,0,0,0-3.78,3A3.69,3.69,0,0,0,68.37,55a3.6,3.6,0,0,0,3.7-3.25A3.41,3.41,0,0,0,68.75,48.14Z"/><path class="cls-3" d="M58.73,65a3.59,3.59,0,0,0,3.47,3.78,3.45,3.45,0,0,0,3.6-3.17,3.7,3.7,0,0,0-3.46-3.7A3.27,3.27,0,0,0,58.73,65Z"/><text class="cls-4" transform="translate(341.32 118.43)">by <tspan class="cls-5" x="24.24" y="0">nyx </tspan><tspan class="cls-6" x="58.85" y="0">ei</tspan></text></g></g></svg>