<svg xmlns="http://www.w3.org/2000/svg" viewBox="0 0 128.94 140.65"><defs><style>.cls-1{fill:#a32535;}.cls-2{fill:#fff;}</style></defs><title>logo-simplevect</title><g id="Layer_2" data-name="Layer 2"><g id="Layer_1-2" data-name="Layer 1"><path class="cls-1" d="M32.3,12.27h73.59a28.35,28.35,0,0,1,28.35,28.35v16.9a70.87,70.87,0,0,1-70.87,70.87H46.47A28.35,28.35,0,0,1,18.12,100V26.44A14.17,14.17,0,0,1,32.3,12.27Z" transform="translate(-27.16 78.7) rotate(-47.34)"/><path class="cls-2" d="M92.4,63.68a3.33,3.33,0,0,0,4.15-3,3.13,3.13,0,0,0-2-3.29c-5-1.78-10-3.49-15-5.22a2.39,2.39,0,0,0-.52-.1,3.34,3.34,0,0,0-3.76,2.45,3.44,3.44,0,0,0,2,4C82.26,60.24,87.32,62,92.4,63.68Z"/><path class="cls-2" d="M72.14,65.7c-2.07-.14-3.41.81-3.85,2.51a3.22,3.22,0,0,0,2.12,3.94c4.87,2,9.77,3.95,14.65,5.92a2.77,2.77,0,0,0,1.82.1A3.41,3.41,0,0,0,89.48,75a3.25,3.25,0,0,0-2.19-3.29c-4.67-1.93-9.35-3.82-14-5.71A7.45,7.45,0,0,0,72.14,65.7Z"/><path class="cls-2" d="M67.07,79.54a4.74,4.74,0,0,0-1.66-.43,3.25,3.25,0,0,0-3.63,2.6,3.4,3.4,0,0,0,2.35,4q7,2.88,14,5.67a3.27,3.27,0,0,0,4.53-1.7A3.35,3.35,0,0,0,80.62,85Q73.85,82.26,67.07,79.54Z"/><path class="cls-2" d="M116.55,44.56c-.54-1.76-1.93-2.29-3.48-2.69-3.47-.92-6.94-1.83-10.4-2.77L64.81,28.91a3.44,3.44,0,0,0-4.51,2c-.25.47-.45,1-.67,1.45L45,65.52c-1.32,3-2.67,6-4,9a3.41,3.41,0,0,0,1.67,4.71c1.7.78,3.55,0,4.5-1.9.17-.36.34-.72.5-1.08q8.41-19.09,16.82-38.2c.86-1.95.83-2,3-1.38l39.61,10.81c1.64.45,1.69.56,1,2.2q-7.57,19.24-16,38.13a127.19,127.19,0,0,1-7.91,15.79c-1.87,3-3.94,5.85-7.5,7-4.35,1.46-9.76.37-11.59-5.32a17,17,0,0,1-.66-7.22,1.85,1.85,0,0,0-1.24-2.17c-4.06-1.88-8.08-3.85-12.11-5.79l-22.86-11c-1.5-.73-1.59-.67-2,1a19.49,19.49,0,0,0-.56,4.25,17.88,17.88,0,0,0-.12,1.82c.11,6.17,2.74,11,8.16,14,8.41,4.64,16.95,9.07,25.42,13.62,4.22,2.27,8.39,4.49,13.47,4.26s9.69-1.78,13.31-5.63a44.44,44.44,0,0,0,7.38-11.31C99,89.67,103.82,78,108.67,66.26c2.53-6.09,5-12.23,7.42-18.36A4.75,4.75,0,0,0,116.55,44.56Z"/><path class="cls-2" d="M52.28,77.73c-.16,2.06,1.22,3.52,3.47,3.69a3.18,3.18,0,0,0,3.66-3,3.44,3.44,0,0,0-3.49-3.69A3.15,3.15,0,0,0,52.28,77.73Z"/><path class="cls-2" d="M68.75,48.14a3.17,3.17,0,0,0-3.78,3A3.69,3.69,0,0,0,68.37,55a3.6,3.6,0,0,0,3.7-3.25A3.41,3.41,0,0,0,68.75,48.14Z"/><path class="cls-2" d="M58.73,65a3.59,3.59,0,0,0,3.47,3.78,3.45,3.45,0,0,0,3.6-3.17,3.7,3.7,0,0,0-3.46-3.7A3.27,3.27,0,0,0,58.73,65Z"/></g></g></svg>